<svg id="visual" viewBox="0 0 512 343" width="512" height="343" xmlns="http://www.w3.org/2000/svg" xmlns:xlink="http://www.w3.org/1999/xlink" version="1.1"><rect x="0" y="0" width="512" height="343" fill="#fff"></rect><defs><linearGradient id="grad1_0" x1="33%" y1="0%" x2="100%" y2="100%"><stop offset="20.145772594752188%" stop-color="#ffffff" stop-opacity="1"></stop><stop offset="79.85422740524783%" stop-color="#ffffff" stop-opacity="1"></stop></linearGradient></defs><defs><linearGradient id="grad2_0" x1="0%" y1="0%" x2="67%" y2="100%"><stop offset="20.145772594752188%" stop-color="#ffffff" stop-opacity="1"></stop><stop offset="79.85422740524783%" stop-color="#ffffff" stop-opacity="1"></stop></linearGradient></defs><g transform="translate(512, 0)"><path d="M0 184.9C-22.2 168.5 -44.4 152.1 -55.5 134C-66.6 115.8 -66.6 95.8 -87.7 87.7C-108.8 79.6 -151.1 83.4 -170.8 70.8C-190.5 58.1 -187.7 29.1 -184.9 0L0 0Z" fill="#623b06"></path></g><g transform="translate(0, 343)"><path d="M0 -184.9C14.2 -160.4 28.4 -135.9 54.3 -131.2C80.2 -126.5 117.8 -141.7 130.7 -130.7C143.6 -119.8 131.8 -82.8 136.7 -56.6C141.6 -30.5 163.3 -15.3 184.9 0L0 0Z" fill="#623b06"></path></g></svg>